<?xml version="1.0"?>
<svg id="Layer_1" data-name="Layer 1" xmlns="http://www.w3.org/2000/svg" viewBox="0 0 48 48" width="48" height="48"><defs><style>.cls-1{fill:#e79165;}.cls-2{fill:#84b749;}.cls-3{fill:#b5e08c;}.cls-4{fill:#ffde76;}.cls-5{fill:#ffba55;}.cls-6{fill:#fff;}.cls-7{fill:#ffbf8e;}.cls-8{fill:#e8a374;}</style></defs><title>wallet, payment, purchase, coin, cash, money</title><path class="cls-1" d="M43.58,15.19H2.46a2,2,0,0,0-2,2V43.58H43.58a3.91,3.91,0,0,0,3.92-3.91V19.1A3.91,3.91,0,0,0,43.58,15.19Z"></path><rect class="cls-2" x="11.27" y="7.35" width="35.25" height="21.54" transform="translate(47.02 -10.77) rotate(90)"></rect><path class="cls-3" d="M20.08,32.81V5.4A2.94,2.94,0,0,0,23,2.46H34.77A2.94,2.94,0,0,0,37.71,5.4V32.81a2.94,2.94,0,0,0-2.94,2.94H23A2.94,2.94,0,0,0,20.08,32.81Z"></path><circle class="cls-4" cx="12.25" cy="13.23" r="8.81"></circle><circle class="cls-5" cx="12.25" cy="13.23" r="6.85"></circle><path class="cls-6" d="M11.76,11.27h3.43v-2h-2v-2h-2v2a2.46,2.46,0,0,0-1.85,3.15,2.5,2.5,0,0,0,2.42,1.7h.9a.48.48,0,0,1,.49.49.49.49,0,0,1-.49.49H9.31v2h2v2h2v-2A2.47,2.47,0,0,0,15.08,14a2.5,2.5,0,0,0-2.42-1.7h-.9a.49.49,0,0,1,0-1Z"></path><ellipse class="cls-2" cx="28.9" cy="18.12" rx="6.85" ry="4.9"></ellipse><rect class="cls-2" x="25.96" y="6.37" width="5.87" height="1.96" transform="translate(36.25 -21.54) rotate(90)"></rect><rect class="cls-3" x="25.96" y="27.92" width="5.87" height="1.96" transform="translate(57.79 0) rotate(90)"></rect><path class="cls-7" d="M43.58,23V43.58a3.91,3.91,0,0,1-3.91,3.92H2.46a2,2,0,0,1-2-2V17.15a2,2,0,0,0,2,2H39.67A3.92,3.92,0,0,1,43.58,23Z"></path><path class="cls-8" d="M40.65,27.92H47.5a0,0,0,0,1,0,0v7.83a0,0,0,0,1,0,0H40.65a3.92,3.92,0,0,1-3.92-3.92v0a3.92,3.92,0,0,1,3.92-3.92Z"></path></svg>