<?xml version="1.0"?>
<svg xmlns="http://www.w3.org/2000/svg" xmlns:xlink="http://www.w3.org/1999/xlink" width="1080" zoomAndPan="magnify" viewBox="0 0 810 809.999993" height="1080" preserveAspectRatio="xMidYMid meet" version="1.0"><defs><clipPath id="af12f54f92"><path d="M 0.175781 117.765625 L 809.871094 117.765625 L 809.871094 692.265625 L 0.175781 692.265625 Z M 0.175781 117.765625 " clip-rule="nonzero"></path></clipPath></defs><g clip-path="url(#af12f54f92)"><path fill="#000000" d="M 783.75 649.453125 C 723.003906 593.917969 587.914062 472.710938 493.894531 405.0625 C 587.804688 337.417969 722.972656 216.125 783.75 160.570312 Z M 46.390625 666.136719 C 136.351562 582.820312 258.371094 476.175781 336.34375 420.621094 C 366.34375 440.492188 390.699219 452.910156 404.902344 453.0625 C 417.832031 453.0625 441.816406 440.652344 471.554688 420.675781 C 546.921875 475.078125 667.625 578.871094 763.265625 666.136719 Z M 26.289062 160.902344 C 86.308594 216.613281 219.269531 337.488281 313.777344 405.015625 C 219.269531 472.527344 86.308594 593.417969 26.289062 649.125 Z M 763.265625 143.890625 C 626.820312 268.398438 437.511719 426.960938 404.902344 426.949219 C 372.292969 426.9375 173.542969 261.65625 46.390625 143.890625 Z M 796.8125 117.765625 L 13.226562 117.765625 C 8.945312 117.753906 0.132812 121.292969 0.175781 130.832031 L 0.175781 679.195312 C 0.132812 684.570312 4.664062 692.226562 13.226562 692.257812 L 796.8125 692.257812 C 807.394531 692.554688 809.949219 685.144531 809.871094 679.195312 L 809.871094 130.832031 C 809.949219 127.058594 807.730469 117.667969 796.8125 117.765625 " fill-opacity="1" fill-rule="nonzero"></path></g></svg>