<?xml version="1.0"?>
<svg id="Layer_1" data-name="Layer 1" xmlns="http://www.w3.org/2000/svg" viewBox="0 0 64 64" width="64" height="64"><defs><style>.cls-1{fill:#389ad6;}.cls-2,.cls-4{fill:none;stroke-linecap:round;stroke-linejoin:round;stroke-width:2px;}.cls-2{stroke:#295183;}.cls-3{fill:#9dcbf4;}.cls-4{stroke:#2a5081;}</style></defs><title>dollar, bitcoin, currency, money, exchange</title><ellipse class="cls-1" cx="46.02" cy="47.11" rx="2.92" ry="3.25"></ellipse><ellipse class="cls-1" cx="16.87" cy="17.89" rx="3.25" ry="2.92" transform="translate(-3.86 31.11) rotate(-79.22)"></ellipse><circle class="cls-2" cx="46.95" cy="46.43" r="4.1"></circle><circle class="cls-2" cx="18.05" cy="17.49" r="4.1"></circle><circle class="cls-2" cx="32.5" cy="32.01" r="11.66"></circle><ellipse class="cls-2" cx="32.5" cy="32.01" rx="4.94" ry="11.66"></ellipse><ellipse class="cls-2" cx="32.5" cy="32.01" rx="11.66" ry="5.65"></ellipse><line class="cls-2" x1="32.5" y1="20.35" x2="32.5" y2="43.43"></line><line class="cls-2" x1="33.5" y1="43.43" x2="31.94" y2="43.43"></line><path class="cls-2" d="M50.79,23.92a20,20,0,0,1,.14,15.87"></path><path class="cls-2" d="M25.31,13.34a20,20,0,0,1,14.39,0"></path><path class="cls-2" d="M14.07,39.78a20,20,0,0,1,.14-15.87"></path><path class="cls-2" d="M39.71,50.58A18.27,18.27,0,0,1,32.5,52a19.81,19.81,0,0,1-7.18-1.33"></path><path class="cls-3" d="M52.69,15.75V16a6.54,6.54,0,0,1-4.46,6.08,6.46,6.46,0,0,1-1.77.31h-.57L44.32,22h0a6.25,6.25,0,0,0-1.64-1.3h0c-1-.71-2.17-1.77-2.72-5,0-.07-.14,0-.21,0A6.66,6.66,0,0,1,40,13.83a6.51,6.51,0,0,1,2.33-3.19l.1-.07a6.45,6.45,0,0,1,3.61-1.18h.13A6.52,6.52,0,0,1,52.69,15.75Z"></path><path class="cls-2" d="M40.49,15.62a7.61,7.61,0,1,1,15.22,0"></path><path class="cls-2" d="M55.71,15.62a7.61,7.61,0,0,1-15.22,0"></path><path class="cls-2" d="M48.1,15.62A1.64,1.64,0,1,1,49.74,14"></path><path class="cls-2" d="M48.1,18.9a1.64,1.64,0,0,1-1.64-1.64"></path><path class="cls-2" d="M48.1,15.62a1.64,1.64,0,0,1,0,3.28"></path><line class="cls-2" x1="48.1" y1="12.34" x2="48.1" y2="10.88"></line><path class="cls-3" d="M21.27,48.52v.22a6.54,6.54,0,0,1-4.46,6.08,6.46,6.46,0,0,1-1.77.31h-.57l-1.57-.38h0a6.25,6.25,0,0,0-1.64-1.3h0c-1-.71-2.17-1.77-2.72-5,0-.07-.14,0-.21,0a6.66,6.66,0,0,1,.32-1.79,6.51,6.51,0,0,1,2.33-3.19l.1-.07a6.45,6.45,0,0,1,3.61-1.18h.13A6.52,6.52,0,0,1,21.27,48.52Z"></path><path class="cls-2" d="M9.08,48.38a7.61,7.61,0,1,1,15.22,0"></path><path class="cls-2" d="M24.29,48.38a7.61,7.61,0,1,1-15.22,0"></path><line class="cls-2" x1="48.1" y1="20.35" x2="48.1" y2="18.9"></line><path class="cls-4" d="M14.72,44.73h2.34a1.45,1.45,0,0,1,.5.09,1.51,1.51,0,0,1,1,1.2,1.11,1.11,0,0,1,0,.47,1.51,1.51,0,0,1-1,1.2,1.45,1.45,0,0,1-.5.09h-1.5"></path><path class="cls-4" d="M14.72,51.76h2.5a1.67,1.67,0,0,0,.35,0,1.9,1.9,0,0,0,1-.5l.06-.05.08-.08a1.72,1.72,0,0,0,.21-.28v0h0l.07-.1a2.07,2.07,0,0,0,.22-.92,1.94,1.94,0,0,0-.28-1l0,0h0a1.8,1.8,0,0,0-.34-.41,1.9,1.9,0,0,0-1-.5,1.67,1.67,0,0,0-.35,0H15.57"></path><polyline class="cls-4" points="17.07 44.73 15.63 44.73 14.72 44.73 14.25 44.73"></polyline><line class="cls-4" x1="14.26" y1="51.76" x2="15.57" y2="51.76"></line><line class="cls-4" x1="15.57" y1="45.69" x2="15.57" y2="52.91"></line><line class="cls-4" x1="17.57" y1="52.9" x2="17.57" y2="51.73"></line><line class="cls-4" x1="17.57" y1="44.82" x2="17.57" y2="43.69"></line></svg>