<?xml version="1.0"?>
 <!-- Generator: Adobe Illustrator 20.0.0, SVG Export Plug-In . SVG Version: 6.00 Build 0) --> <svg version="1.1" id="Layer_1" xmlns="http://www.w3.org/2000/svg" xmlns:xlink="http://www.w3.org/1999/xlink" x="0px" y="0px" viewBox="0 0 64 42" style="enable-background:new 0 0 64 42;" xml:space="preserve" width="64" height="42"> <style type="text/css"> .st0{fill:#034A9B;} .st1{fill:#FFFFFF;} .st2{fill:#ED1D25;} </style> <path id="Rounded_Rectangle_7_copy" class="st0" d="M5.8,0h52.3C61.4,0,64,2.6,64,5.7v30.6c0,3.2-2.6,5.7-5.8,5.7H5.8 C2.6,42,0,39.4,0,36.3V5.7C0,2.6,2.6,0,5.8,0z"></path> <rect y="5.7" class="st1" width="64" height="30.7"></rect> <rect y="7.9" class="st2" width="64" height="26.2"></rect> <g> <circle class="st1" cx="24" cy="21" r="10.8"></circle> <polygon class="st2" points="24,10.2 26.4,17.7 34.3,17.7 27.9,22.3 30.4,29.8 24,25.2 17.6,29.8 20.1,22.3 13.7,17.7 21.6,17.7 "></polygon> </g> </svg> 