<?xml version="1.0"?>
<svg xmlns="http://www.w3.org/2000/svg" xmlns:xlink="http://www.w3.org/1999/xlink" width="1080" zoomAndPan="magnify" viewBox="0 0 810 809.999993" height="1080" preserveAspectRatio="xMidYMid meet" version="1.0"><path fill="#141f38" d="M 50.625 243 L 192.375 243 C 194.03125 243 195.6875 242.917969 197.335938 242.757812 C 198.988281 242.59375 200.625 242.351562 202.25 242.027344 C 203.878906 241.703125 205.484375 241.300781 207.070312 240.820312 C 208.65625 240.339844 210.214844 239.78125 211.75 239.144531 C 213.28125 238.511719 214.777344 237.804688 216.238281 237.023438 C 217.703125 236.242188 219.121094 235.390625 220.5 234.46875 C 221.878906 233.546875 223.210938 232.558594 224.492188 231.507812 C 225.773438 230.457031 227 229.34375 228.171875 228.171875 C 229.34375 227 230.457031 225.773438 231.507812 224.492188 C 232.558594 223.210938 233.546875 221.878906 234.46875 220.5 C 235.390625 219.121094 236.242188 217.703125 237.023438 216.238281 C 237.804688 214.777344 238.511719 213.28125 239.144531 211.75 C 239.78125 210.214844 240.339844 208.65625 240.820312 207.070312 C 241.300781 205.484375 241.703125 203.878906 242.027344 202.25 C 242.351562 200.625 242.59375 198.988281 242.757812 197.335938 C 242.917969 195.6875 243 194.03125 243 192.375 L 243 50.625 C 243 48.96875 242.917969 47.3125 242.757812 45.664062 C 242.59375 44.011719 242.351562 42.375 242.027344 40.75 C 241.703125 39.121094 241.300781 37.515625 240.820312 35.929688 C 240.339844 34.34375 239.78125 32.785156 239.144531 31.25 C 238.511719 29.71875 237.804688 28.222656 237.023438 26.761719 C 236.242188 25.296875 235.390625 23.878906 234.46875 22.5 C 233.546875 21.121094 232.558594 19.789062 231.507812 18.507812 C 230.457031 17.226562 229.34375 16 228.171875 14.828125 C 227 13.65625 225.773438 12.542969 224.492188 11.492188 C 223.210938 10.441406 221.878906 9.453125 220.5 8.53125 C 219.121094 7.609375 217.703125 6.757812 216.238281 5.976562 C 214.777344 5.195312 213.28125 4.488281 211.75 3.855469 C 210.214844 3.21875 208.65625 2.660156 207.070312 2.179688 C 205.484375 1.699219 203.878906 1.296875 202.25 0.972656 C 200.625 0.648438 198.988281 0.40625 197.335938 0.242188 C 195.6875 0.0820312 194.03125 0 192.375 0 L 50.625 0 C 48.96875 0 47.3125 0.0820312 45.664062 0.242188 C 44.011719 0.40625 42.375 0.648438 40.75 0.972656 C 39.121094 1.296875 37.515625 1.699219 35.929688 2.179688 C 34.34375 2.660156 32.785156 3.21875 31.25 3.855469 C 29.71875 4.488281 28.222656 5.195312 26.761719 5.976562 C 25.296875 6.757812 23.878906 7.609375 22.5 8.53125 C 21.121094 9.453125 19.789062 10.441406 18.507812 11.492188 C 17.226562 12.542969 16 13.65625 14.828125 14.828125 C 13.65625 16 12.542969 17.226562 11.492188 18.507812 C 10.441406 19.789062 9.453125 21.121094 8.53125 22.5 C 7.609375 23.878906 6.757812 25.296875 5.976562 26.761719 C 5.195312 28.222656 4.488281 29.71875 3.855469 31.25 C 3.21875 32.785156 2.660156 34.34375 2.179688 35.929688 C 1.699219 37.515625 1.296875 39.121094 0.972656 40.75 C 0.648438 42.375 0.40625 44.011719 0.242188 45.664062 C 0.0820312 47.3125 0 48.96875 0 50.625 L 0 192.375 C 0 194.03125 0.0820312 195.6875 0.242188 197.335938 C 0.40625 198.988281 0.648438 200.625 0.972656 202.25 C 1.296875 203.878906 1.699219 205.484375 2.179688 207.070312 C 2.660156 208.65625 3.21875 210.214844 3.855469 211.75 C 4.488281 213.28125 5.195312 214.777344 5.976562 216.238281 C 6.757812 217.703125 7.609375 219.121094 8.53125 220.5 C 9.453125 221.878906 10.441406 223.210938 11.492188 224.492188 C 12.542969 225.773438 13.65625 227 14.828125 228.171875 C 16 229.34375 17.226562 230.457031 18.507812 231.507812 C 19.789062 232.558594 21.121094 233.546875 22.5 234.46875 C 23.878906 235.390625 25.296875 236.242188 26.761719 237.023438 C 28.222656 237.804688 29.71875 238.511719 31.25 239.144531 C 32.785156 239.78125 34.34375 240.339844 35.929688 240.820312 C 37.515625 241.300781 39.121094 241.703125 40.75 242.027344 C 42.375 242.351562 44.011719 242.59375 45.664062 242.757812 C 47.3125 242.917969 48.96875 243 50.625 243 Z M 40.5 50.625 C 40.5 49.960938 40.566406 49.300781 40.695312 48.652344 C 40.828125 48 41.019531 47.367188 41.273438 46.753906 C 41.53125 46.140625 41.84375 45.554688 42.210938 45.003906 C 42.582031 44.453125 43 43.941406 43.46875 43.46875 C 43.941406 43 44.453125 42.582031 45.003906 42.210938 C 45.554688 41.84375 46.140625 41.53125 46.753906 41.273438 C 47.367188 41.019531 48 40.828125 48.652344 40.695312 C 49.300781 40.566406 49.960938 40.5 50.625 40.5 L 192.375 40.5 C 193.039062 40.5 193.699219 40.566406 194.347656 40.695312 C 195 40.828125 195.632812 41.019531 196.246094 41.273438 C 196.859375 41.53125 197.445312 41.84375 197.996094 42.210938 C 198.546875 42.582031 199.058594 43 199.53125 43.46875 C 200 43.941406 200.417969 44.453125 200.789062 45.003906 C 201.15625 45.554688 201.46875 46.140625 201.726562 46.753906 C 201.980469 47.367188 202.171875 48 202.304688 48.652344 C 202.433594 49.300781 202.5 49.960938 202.5 50.625 L 202.5 192.375 C 202.5 193.039062 202.433594 193.699219 202.304688 194.347656 C 202.171875 195 201.980469 195.632812 201.726562 196.246094 C 201.46875 196.859375 201.15625 197.445312 200.789062 197.996094 C 200.417969 198.546875 200 199.058594 199.53125 199.53125 C 199.058594 200 198.546875 200.417969 197.996094 200.789062 C 197.445312 201.15625 196.859375 201.46875 196.246094 201.726562 C 195.632812 201.980469 195 202.171875 194.347656 202.304688 C 193.699219 202.433594 193.039062 202.5 192.375 202.5 L 50.625 202.5 C 49.960938 202.5 49.300781 202.433594 48.652344 202.304688 C 48 202.171875 47.367188 201.980469 46.753906 201.726562 C 46.140625 201.46875 45.554688 201.160156 45.003906 200.789062 C 44.453125 200.417969 43.941406 200 43.46875 199.53125 C 43 199.058594 42.582031 198.550781 42.210938 197.996094 C 41.84375 197.445312 41.53125 196.859375 41.273438 196.246094 C 41.019531 195.632812 40.828125 195 40.695312 194.347656 C 40.566406 193.699219 40.5 193.039062 40.5 192.375 Z M 40.5 50.625 " fill-opacity="1" fill-rule="nonzero"></path><path fill="#141f38" d="M 81 81 L 162 81 L 162 162 L 81 162 Z M 81 81 " fill-opacity="1" fill-rule="nonzero"></path><path fill="#141f38" d="M 192.375 567 L 50.625 567 C 48.96875 567 47.3125 567.082031 45.664062 567.242188 C 44.011719 567.40625 42.375 567.648438 40.75 567.972656 C 39.121094 568.296875 37.515625 568.699219 35.929688 569.179688 C 34.34375 569.660156 32.785156 570.21875 31.25 570.855469 C 29.71875 571.488281 28.222656 572.195312 26.761719 572.976562 C 25.296875 573.757812 23.878906 574.609375 22.5 575.53125 C 21.121094 576.453125 19.789062 577.441406 18.507812 578.492188 C 17.226562 579.542969 16 580.65625 14.828125 581.828125 C 13.65625 583 12.542969 584.226562 11.492188 585.507812 C 10.441406 586.789062 9.453125 588.121094 8.53125 589.5 C 7.609375 590.878906 6.757812 592.296875 5.976562 593.761719 C 5.195312 595.222656 4.488281 596.71875 3.855469 598.25 C 3.21875 599.785156 2.660156 601.34375 2.179688 602.929688 C 1.699219 604.515625 1.296875 606.121094 0.972656 607.75 C 0.648438 609.375 0.40625 611.011719 0.242188 612.664062 C 0.0820312 614.3125 0 615.96875 0 617.625 L 0 759.375 C 0 761.03125 0.0820312 762.6875 0.242188 764.335938 C 0.40625 765.988281 0.648438 767.625 0.972656 769.25 C 1.296875 770.878906 1.699219 772.484375 2.179688 774.070312 C 2.660156 775.65625 3.21875 777.214844 3.855469 778.75 C 4.488281 780.28125 5.195312 781.777344 5.976562 783.238281 C 6.757812 784.703125 7.609375 786.121094 8.53125 787.5 C 9.453125 788.878906 10.441406 790.210938 11.492188 791.492188 C 12.542969 792.773438 13.65625 794 14.828125 795.171875 C 16 796.34375 17.226562 797.457031 18.507812 798.507812 C 19.789062 799.558594 21.121094 800.546875 22.5 801.46875 C 23.878906 802.390625 25.296875 803.242188 26.761719 804.023438 C 28.222656 804.804688 29.71875 805.511719 31.25 806.144531 C 32.785156 806.78125 34.34375 807.339844 35.929688 807.820312 C 37.515625 808.300781 39.121094 808.703125 40.75 809.027344 C 42.375 809.351562 44.011719 809.59375 45.664062 809.757812 C 47.3125 809.917969 48.96875 810 50.625 810 L 192.375 810 C 194.03125 810 195.6875 809.917969 197.335938 809.757812 C 198.988281 809.59375 200.625 809.351562 202.25 809.027344 C 203.878906 808.703125 205.484375 808.300781 207.070312 807.820312 C 208.65625 807.339844 210.214844 806.78125 211.75 806.144531 C 213.28125 805.511719 214.777344 804.804688 216.238281 804.023438 C 217.703125 803.242188 219.121094 802.390625 220.5 801.46875 C 221.878906 800.546875 223.210938 799.558594 224.492188 798.507812 C 225.773438 797.457031 227 796.34375 228.171875 795.171875 C 229.34375 794 230.457031 792.773438 231.507812 791.492188 C 232.558594 790.210938 233.546875 788.878906 234.46875 787.5 C 235.390625 786.121094 236.242188 784.703125 237.023438 783.238281 C 237.804688 781.777344 238.511719 780.28125 239.144531 778.75 C 239.78125 777.214844 240.339844 775.65625 240.820312 774.070312 C 241.300781 772.484375 241.703125 770.878906 242.027344 769.25 C 242.351562 767.625 242.59375 765.988281 242.757812 764.335938 C 242.917969 762.6875 243 761.03125 243 759.375 L 243 617.625 C 243 615.96875 242.917969 614.3125 242.757812 612.664062 C 242.59375 611.011719 242.351562 609.375 242.027344 607.75 C 241.703125 606.121094 241.300781 604.515625 240.820312 602.929688 C 240.339844 601.34375 239.78125 599.785156 239.144531 598.25 C 238.511719 596.71875 237.804688 595.222656 237.023438 593.761719 C 236.242188 592.296875 235.390625 590.878906 234.46875 589.5 C 233.546875 588.121094 232.558594 586.789062 231.507812 585.507812 C 230.457031 584.226562 229.34375 583 228.171875 581.828125 C 227 580.65625 225.773438 579.542969 224.492188 578.492188 C 223.210938 577.441406 221.878906 576.453125 220.5 575.53125 C 219.121094 574.609375 217.703125 573.757812 216.238281 572.976562 C 214.777344 572.195312 213.28125 571.488281 211.75 570.855469 C 210.214844 570.21875 208.65625 569.660156 207.070312 569.179688 C 205.484375 568.699219 203.878906 568.296875 202.25 567.972656 C 200.625 567.648438 198.988281 567.40625 197.335938 567.242188 C 195.6875 567.082031 194.03125 567 192.375 567 Z M 202.5 759.375 C 202.5 760.039062 202.433594 760.699219 202.304688 761.347656 C 202.171875 762 201.980469 762.632812 201.726562 763.246094 C 201.46875 763.859375 201.15625 764.445312 200.789062 764.996094 C 200.417969 765.550781 200 766.058594 199.53125 766.53125 C 199.058594 767 198.546875 767.417969 197.996094 767.789062 C 197.445312 768.15625 196.859375 768.46875 196.246094 768.726562 C 195.632812 768.980469 195 769.171875 194.347656 769.304688 C 193.699219 769.433594 193.039062 769.5 192.375 769.5 L 50.625 769.5 C 49.960938 769.5 49.300781 769.433594 48.652344 769.304688 C 48 769.171875 47.367188 768.980469 46.753906 768.726562 C 46.140625 768.46875 45.554688 768.15625 45.003906 767.789062 C 44.453125 767.417969 43.941406 767 43.46875 766.53125 C 43 766.058594 42.582031 765.546875 42.210938 764.996094 C 41.84375 764.445312 41.53125 763.859375 41.273438 763.246094 C 41.019531 762.632812 40.828125 762 40.695312 761.347656 C 40.566406 760.699219 40.5 760.039062 40.5 759.375 L 40.5 617.625 C 40.5 616.960938 40.566406 616.300781 40.695312 615.652344 C 40.828125 615 41.019531 614.367188 41.273438 613.753906 C 41.53125 613.140625 41.84375 612.554688 42.210938 612.003906 C 42.582031 611.449219 43 610.941406 43.46875 610.46875 C 43.941406 610 44.453125 609.582031 45.003906 609.210938 C 45.554688 608.839844 46.140625 608.53125 46.753906 608.273438 C 47.367188 608.019531 48 607.828125 48.652344 607.695312 C 49.300781 607.566406 49.960938 607.5 50.625 607.5 L 192.375 607.5 C 193.039062 607.5 193.699219 607.566406 194.347656 607.695312 C 195 607.828125 195.632812 608.019531 196.246094 608.273438 C 196.859375 608.53125 197.445312 608.84375 197.996094 609.210938 C 198.546875 609.582031 199.058594 610 199.53125 610.46875 C 200 610.941406 200.417969 611.453125 200.789062 612.003906 C 201.15625 612.554688 201.46875 613.140625 201.726562 613.753906 C 201.980469 614.367188 202.171875 615 202.304688 615.652344 C 202.433594 616.300781 202.5 616.960938 202.5 617.625 Z M 202.5 759.375 " fill-opacity="1" fill-rule="nonzero"></path><path fill="#141f38" d="M 81 648 L 162 648 L 162 729 L 81 729 Z M 81 648 " fill-opacity="1" fill-rule="nonzero"></path><path fill="#141f38" d="M 759.375 0 L 617.625 0 C 615.96875 0 614.3125 0.0820312 612.664062 0.242188 C 611.011719 0.40625 609.375 0.648438 607.75 0.972656 C 606.121094 1.296875 604.515625 1.699219 602.929688 2.179688 C 601.34375 2.660156 599.785156 3.21875 598.25 3.855469 C 596.71875 4.488281 595.222656 5.195312 593.761719 5.976562 C 592.296875 6.757812 590.878906 7.609375 589.5 8.53125 C 588.121094 9.453125 586.789062 10.441406 585.507812 11.492188 C 584.226562 12.542969 583 13.65625 581.828125 14.828125 C 580.65625 16 579.542969 17.226562 578.492188 18.507812 C 577.441406 19.789062 576.453125 21.121094 575.53125 22.5 C 574.609375 23.878906 573.757812 25.296875 572.976562 26.761719 C 572.195312 28.222656 571.488281 29.71875 570.855469 31.25 C 570.21875 32.785156 569.660156 34.34375 569.179688 35.929688 C 568.699219 37.515625 568.296875 39.121094 567.972656 40.75 C 567.648438 42.375 567.40625 44.011719 567.242188 45.664062 C 567.082031 47.3125 567 48.96875 567 50.625 L 567 192.375 C 567 194.03125 567.082031 195.6875 567.242188 197.335938 C 567.40625 198.988281 567.648438 200.625 567.972656 202.25 C 568.296875 203.878906 568.699219 205.484375 569.179688 207.070312 C 569.660156 208.65625 570.21875 210.214844 570.855469 211.75 C 571.488281 213.28125 572.195312 214.777344 572.976562 216.238281 C 573.757812 217.703125 574.609375 219.121094 575.53125 220.5 C 576.453125 221.878906 577.441406 223.210938 578.492188 224.492188 C 579.542969 225.773438 580.65625 227 581.828125 228.171875 C 583 229.34375 584.226562 230.457031 585.507812 231.507812 C 586.789062 232.558594 588.121094 233.546875 589.5 234.46875 C 590.878906 235.390625 592.296875 236.242188 593.761719 237.023438 C 595.222656 237.804688 596.71875 238.511719 598.25 239.144531 C 599.785156 239.78125 601.34375 240.339844 602.929688 240.820312 C 604.515625 241.300781 606.121094 241.703125 607.75 242.027344 C 609.375 242.351562 611.011719 242.59375 612.664062 242.757812 C 614.3125 242.917969 615.96875 243 617.625 243 L 759.375 243 C 761.03125 243 762.6875 242.917969 764.335938 242.757812 C 765.988281 242.59375 767.625 242.351562 769.25 242.027344 C 770.878906 241.703125 772.484375 241.300781 774.070312 240.820312 C 775.65625 240.339844 777.214844 239.78125 778.75 239.144531 C 780.28125 238.511719 781.777344 237.804688 783.238281 237.023438 C 784.703125 236.242188 786.121094 235.390625 787.5 234.46875 C 788.878906 233.546875 790.210938 232.558594 791.492188 231.507812 C 792.773438 230.457031 794 229.34375 795.171875 228.171875 C 796.34375 227 797.457031 225.773438 798.507812 224.492188 C 799.558594 223.210938 800.546875 221.878906 801.46875 220.5 C 802.390625 219.121094 803.242188 217.703125 804.023438 216.238281 C 804.804688 214.777344 805.511719 213.28125 806.144531 211.75 C 806.78125 210.214844 807.339844 208.65625 807.820312 207.070312 C 808.300781 205.484375 808.703125 203.878906 809.027344 202.25 C 809.351562 200.625 809.59375 198.988281 809.757812 197.335938 C 809.917969 195.6875 810 194.03125 810 192.375 L 810 50.625 C 810 48.96875 809.917969 47.3125 809.757812 45.664062 C 809.59375 44.011719 809.351562 42.375 809.027344 40.75 C 808.703125 39.121094 808.300781 37.515625 807.820312 35.929688 C 807.339844 34.34375 806.78125 32.785156 806.144531 31.25 C 805.511719 29.71875 804.804688 28.222656 804.023438 26.761719 C 803.242188 25.296875 802.390625 23.878906 801.46875 22.5 C 800.546875 21.121094 799.558594 19.789062 798.507812 18.507812 C 797.457031 17.226562 796.34375 16 795.171875 14.828125 C 794 13.65625 792.773438 12.542969 791.492188 11.492188 C 790.210938 10.441406 788.878906 9.453125 787.5 8.53125 C 786.121094 7.609375 784.703125 6.757812 783.238281 5.976562 C 781.777344 5.195312 780.28125 4.488281 778.75 3.855469 C 777.214844 3.21875 775.65625 2.660156 774.070312 2.179688 C 772.484375 1.699219 770.878906 1.296875 769.25 0.972656 C 767.625 0.648438 765.988281 0.40625 764.335938 0.242188 C 762.6875 0.0820312 761.03125 0 759.375 0 Z M 769.5 192.375 C 769.5 193.039062 769.433594 193.699219 769.304688 194.347656 C 769.171875 195 768.980469 195.632812 768.726562 196.246094 C 768.46875 196.859375 768.15625 197.445312 767.789062 197.996094 C 767.417969 198.546875 767 199.058594 766.53125 199.53125 C 766.058594 200 765.550781 200.417969 764.996094 200.789062 C 764.445312 201.160156 763.859375 201.46875 763.246094 201.726562 C 762.632812 201.980469 762 202.171875 761.347656 202.304688 C 760.699219 202.433594 760.039062 202.5 759.375 202.5 L 617.625 202.5 C 616.960938 202.5 616.300781 202.433594 615.652344 202.304688 C 615 202.171875 614.367188 201.980469 613.753906 201.726562 C 613.140625 201.46875 612.554688 201.160156 612.003906 200.789062 C 611.453125 200.417969 610.941406 200 610.46875 199.53125 C 610 199.058594 609.582031 198.546875 609.210938 197.996094 C 608.84375 197.445312 608.53125 196.859375 608.273438 196.246094 C 608.019531 195.632812 607.828125 195 607.695312 194.347656 C 607.566406 193.699219 607.5 193.039062 607.5 192.375 L 607.5 50.625 C 607.5 49.960938 607.566406 49.300781 607.695312 48.652344 C 607.828125 48 608.019531 47.367188 608.273438 46.753906 C 608.53125 46.140625 608.839844 45.554688 609.210938 45.003906 C 609.582031 44.453125 610 43.941406 610.46875 43.46875 C 610.941406 43 611.449219 42.582031 612.003906 42.210938 C 612.554688 41.84375 613.140625 41.53125 613.753906 41.273438 C 614.367188 41.019531 615 40.828125 615.652344 40.695312 C 616.300781 40.566406 616.960938 40.5 617.625 40.5 L 759.375 40.5 C 760.039062 40.5 760.699219 40.566406 761.347656 40.695312 C 762 40.828125 762.632812 41.019531 763.246094 41.273438 C 763.859375 41.53125 764.445312 41.84375 764.996094 42.210938 C 765.546875 42.582031 766.058594 43 766.53125 43.46875 C 767 43.941406 767.417969 44.453125 767.789062 45.003906 C 768.15625 45.554688 768.46875 46.140625 768.726562 46.753906 C 768.980469 47.367188 769.171875 48 769.304688 48.652344 C 769.433594 49.300781 769.5 49.960938 769.5 50.625 Z M 769.5 192.375 " fill-opacity="1" fill-rule="nonzero"></path><path fill="#141f38" d="M 648 81 L 729 81 L 729 162 L 648 162 Z M 648 81 " fill-opacity="1" fill-rule="nonzero"></path><path fill="#141f38" d="M 324 40.5 L 364.5 40.5 L 364.5 81 L 405 81 L 405 0 L 283.5 0 L 283.5 81 L 324 81 Z M 324 40.5 " fill-opacity="1" fill-rule="nonzero"></path><path fill="#141f38" d="M 486 0 L 526.5 0 L 526.5 40.5 L 486 40.5 Z M 486 0 " fill-opacity="1" fill-rule="nonzero"></path><path fill="#141f38" d="M 324 202.5 L 364.5 202.5 L 364.5 162 L 324 162 L 324 121.5 L 283.5 121.5 L 283.5 283.5 L 324 283.5 Z M 324 202.5 " fill-opacity="1" fill-rule="nonzero"></path><path fill="#141f38" d="M 526.5 162 L 526.5 81 L 486 81 L 486 121.5 L 364.5 121.5 L 364.5 162 Z M 526.5 162 " fill-opacity="1" fill-rule="nonzero"></path><path fill="#141f38" d="M 364.5 243 L 445.5 243 L 445.5 283.5 L 364.5 283.5 Z M 364.5 243 " fill-opacity="1" fill-rule="nonzero"></path><path fill="#141f38" d="M 486 202.5 L 486 324 L 607.5 324 L 607.5 283.5 L 526.5 283.5 L 526.5 202.5 Z M 486 202.5 " fill-opacity="1" fill-rule="nonzero"></path><path fill="#141f38" d="M 729 324 L 769.5 324 L 769.5 364.5 L 810 364.5 L 810 283.5 L 729 283.5 Z M 729 324 " fill-opacity="1" fill-rule="nonzero"></path><path fill="#141f38" d="M 648 283.5 L 688.5 283.5 L 688.5 364.5 L 648 364.5 Z M 648 283.5 " fill-opacity="1" fill-rule="nonzero"></path><path fill="#141f38" d="M 567 526.5 L 607.5 526.5 L 607.5 364.5 L 567 364.5 L 567 405 L 526.5 405 L 526.5 364.5 L 486 364.5 L 486 445.5 L 567 445.5 Z M 567 526.5 " fill-opacity="1" fill-rule="nonzero"></path><path fill="#141f38" d="M 405 405 L 445.5 405 L 445.5 445.5 L 405 445.5 Z M 405 405 " fill-opacity="1" fill-rule="nonzero"></path><path fill="#141f38" d="M 769.5 445.5 L 729 445.5 L 729 405 L 688.5 405 L 688.5 445.5 L 648 445.5 L 648 486 L 810 486 L 810 405 L 769.5 405 Z M 769.5 445.5 " fill-opacity="1" fill-rule="nonzero"></path><path fill="#141f38" d="M 121.5 283.5 L 162 283.5 L 162 324 L 121.5 324 Z M 121.5 283.5 " fill-opacity="1" fill-rule="nonzero"></path><path fill="#141f38" d="M 81 445.5 L 81 364.5 L 121.5 364.5 L 121.5 324 L 40.5 324 L 40.5 283.5 L 0 283.5 L 0 364.5 L 40.5 364.5 L 40.5 405 L 0 405 L 0 445.5 Z M 81 445.5 " fill-opacity="1" fill-rule="nonzero"></path><path fill="#141f38" d="M 162 486 L 222.75 486 L 222.75 445.5 L 121.5 445.5 L 121.5 486 L 0 486 L 0 526.5 L 162 526.5 Z M 162 486 " fill-opacity="1" fill-rule="nonzero"></path><path fill="#141f38" d="M 364.5 486 L 364.5 364.5 L 405 364.5 L 405 324 L 324 324 L 324 364.5 L 243 364.5 L 243 283.5 L 202.5 283.5 L 202.5 405 L 324 405 L 324 486 L 283.5 486 L 283.5 607.5 L 324 607.5 L 324 526.5 L 405 526.5 L 405 607.5 L 364.5 607.5 L 364.5 648 L 445.5 648 L 445.5 486 Z M 364.5 486 " fill-opacity="1" fill-rule="nonzero"></path><path fill="#141f38" d="M 486 486 L 526.5 486 L 526.5 526.5 L 486 526.5 Z M 486 486 " fill-opacity="1" fill-rule="nonzero"></path><path fill="#141f38" d="M 486 567 L 526.5 567 L 526.5 648 L 486 648 Z M 486 567 " fill-opacity="1" fill-rule="nonzero"></path><path fill="#141f38" d="M 283.5 648 L 324 648 L 324 729 L 283.5 729 Z M 283.5 648 " fill-opacity="1" fill-rule="nonzero"></path><path fill="#141f38" d="M 364.5 729 L 405 729 L 405 769.5 L 283.5 769.5 L 283.5 810 L 445.5 810 L 445.5 688.5 L 364.5 688.5 Z M 364.5 729 " fill-opacity="1" fill-rule="nonzero"></path><path fill="#141f38" d="M 769.5 526.5 L 810 526.5 L 810 607.5 L 769.5 607.5 Z M 769.5 526.5 " fill-opacity="1" fill-rule="nonzero"></path><path fill="#141f38" d="M 567 567 L 607.5 567 L 607.5 607.5 L 567 607.5 Z M 567 567 " fill-opacity="1" fill-rule="nonzero"></path><path fill="#141f38" d="M 769.5 648 L 729 648 L 729 729 L 810 729 L 810 688.5 L 769.5 688.5 Z M 769.5 648 " fill-opacity="1" fill-rule="nonzero"></path><path fill="#141f38" d="M 688.5 729 L 688.5 567 L 729 567 L 729 526.5 L 648 526.5 L 648 648 L 567 648 L 567 688.5 L 648 688.5 L 648 729 L 567 729 L 567 810 L 607.5 810 L 607.5 769.5 L 648 769.5 L 648 810 L 729 810 L 729 769.5 L 688.5 769.5 Z M 688.5 729 " fill-opacity="1" fill-rule="nonzero"></path><path fill="#141f38" d="M 769.5 769.5 L 810 769.5 L 810 810 L 769.5 810 Z M 769.5 769.5 " fill-opacity="1" fill-rule="nonzero"></path><path fill="#141f38" d="M 486 688.5 L 526.5 688.5 L 526.5 729 L 486 729 Z M 486 688.5 " fill-opacity="1" fill-rule="nonzero"></path><path fill="#141f38" d="M 486 769.5 L 526.5 769.5 L 526.5 810 L 486 810 Z M 486 769.5 " fill-opacity="1" fill-rule="nonzero"></path></svg>