<?xml version="1.0"?>
<svg xmlns="http://www.w3.org/2000/svg" xmlns:xlink="http://www.w3.org/1999/xlink" width="1080" zoomAndPan="magnify" viewBox="0 0 810 809.999993" height="1080" preserveAspectRatio="xMidYMid meet" version="1.0"><path fill="#ffffff" d="M 405 0 C 181.683594 0 0 181.675781 0 405 C 0 525.101562 52.597656 633.105469 135.914062 707.335938 C 137.015625 708.621094 138.3125 709.726562 139.757812 710.667969 C 210.875 772.460938 303.609375 810 405 810 C 506.390625 810 599.125 772.460938 670.242188 710.667969 C 671.6875 709.726562 672.984375 708.621094 674.085938 707.335938 C 757.402344 633.105469 810 525.101562 810 405 C 810 181.675781 628.316406 0 405 0 Z M 169.800781 689.097656 C 205.355469 556.871094 298.804688 468.800781 405 468.800781 C 511.195312 468.800781 604.644531 556.871094 640.199219 689.097656 C 576.296875 742.09375 494.3125 774 405 774 C 315.6875 774 233.703125 742.09375 169.800781 689.097656 Z M 297.054688 324.851562 C 297.054688 265.335938 345.476562 216.90625 405 216.90625 C 464.523438 216.90625 512.945312 265.335938 512.945312 324.851562 C 512.945312 384.371094 464.519531 432.800781 405 432.800781 C 345.476562 432.800781 297.054688 384.371094 297.054688 324.851562 Z M 669.707031 661.699219 C 636.0625 554.761719 566.429688 476.253906 482.050781 446.234375 C 522.195312 420.664062 548.949219 375.871094 548.949219 324.851562 C 548.949219 245.480469 484.375 180.90625 405 180.90625 C 325.625 180.90625 261.050781 245.480469 261.050781 324.851562 C 261.050781 375.871094 287.804688 420.664062 327.949219 446.234375 C 243.570312 476.253906 173.9375 554.761719 140.292969 661.699219 C 75.8125 595.230469 36 504.699219 36 405 C 36 201.535156 201.535156 36 405 36 C 608.464844 36 774 201.535156 774 405 C 774 504.699219 734.1875 595.230469 669.707031 661.699219 Z M 669.707031 661.699219 " fill-opacity="1" fill-rule="nonzero"></path></svg>