<?xml version="1.0"?>
<svg enable-background="new 0 0 24 24" id="Layer_1" version="1.1" viewBox="0 0 24 24" xml:space="preserve" xmlns="http://www.w3.org/2000/svg" xmlns:xlink="http://www.w3.org/1999/xlink" width="24" height="24"><path d="M23.7514038,11.0774536c-0.008606-0.0082397-8.027771-4.0247192-8.027771-4.0247192 C15.6542969,7.0180664,15.5776367,7,15.5,7h-2C13.2236328,7,13,7.2236328,13,7.5v1C13,8.7763672,13.2236328,9,13.5,9 S14,8.7763672,14,8.5V8h1.3818359l6,3H2.6181641l6-3H10v0.5C10,8.7763672,10.2236328,9,10.5,9S11,8.7763672,11,8.5v-1 C11,7.2236328,10.7763672,7,10.5,7h-2C8.4223633,7,8.3457031,7.0180664,8.2763672,7.0527344 c0,0-8.0206909,4.0170898-8.0289307,4.0255127C0.1021118,11.1657104,0,11.3178711,0,11.5v2C0,13.7763672,0.2236328,14,0.5,14H1v0.5 C1,14.7763672,1.2236328,15,1.5,15H2v0.5C2,15.7763672,2.2236328,16,2.5,16H3v0.5C3,16.7763672,3.2236328,17,3.5,17h5 C8.7763672,17,9,16.7763672,9,16.5V16h0.5c0.2763672,0,0.5-0.2236328,0.5-0.5V15h0.5c0.2763672,0,0.5-0.2236328,0.5-0.5V12h2v2.5 c0,0.2763672,0.2236328,0.5,0.5,0.5H14v0.5c0,0.2763672,0.2236328,0.5,0.5,0.5H15v0.5c0,0.2763672,0.2236328,0.5,0.5,0.5h5 c0.2763672,0,0.5-0.2236328,0.5-0.5V16h0.5c0.2763672,0,0.5-0.2236328,0.5-0.5V15h0.5c0.2763672,0,0.5-0.2236328,0.5-0.5V14h0.5 c0.2763672,0,0.5-0.2236328,0.5-0.5v-2C24,11.3173828,23.8973999,11.1646729,23.7514038,11.0774536z M6,15.5H5v-1H4v-1H3v-1h1v1h1v1 h1V15.5z M18,15.5h-1v-1h-1v-1h-1v-1h1v1h1v1h1V15.5z" fill="#303C42"></path><g></g><g></g><g></g><g></g><g></g><g></g><g></g><g></g><g></g><g></g><g></g><g></g><g></g><g></g><g></g></svg>