<?xml version="1.0"?>
<svg xmlns="http://www.w3.org/2000/svg" xmlns:xlink="http://www.w3.org/1999/xlink" width="1080" zoomAndPan="magnify" viewBox="0 0 810 809.999993" height="1080" preserveAspectRatio="xMidYMid meet" version="1.0"><path fill="#ffffff" d="M 192.089844 562.589844 L 192.089844 589.589844 L 617.910156 589.589844 L 617.910156 562.589844 L 585.265625 562.589844 L 585.265625 341.5 L 617.910156 341.5 L 617.910156 314.5 L 192.089844 314.5 L 192.089844 341.5 L 224.734375 341.5 L 224.734375 562.589844 Z M 309.304688 562.589844 L 309.304688 341.5 L 362.714844 341.5 L 362.714844 562.589844 Z M 447.285156 562.589844 L 447.285156 341.5 L 500.695312 341.5 L 500.695312 562.589844 Z M 558.261719 341.5 L 558.261719 562.589844 L 527.695312 562.589844 L 527.695312 341.5 Z M 420.285156 341.5 L 420.285156 562.589844 L 389.714844 562.589844 L 389.714844 341.5 Z M 251.738281 341.5 L 282.304688 341.5 L 282.304688 562.589844 L 251.738281 562.589844 Z M 251.738281 341.5 " fill-opacity="1" fill-rule="nonzero"></path><path fill="#ffffff" d="M 641.210938 616.5 L 168.789062 616.5 C 161.332031 616.5 155.289062 622.546875 155.289062 630 C 155.289062 637.449219 161.332031 643.5 168.789062 643.5 L 641.210938 643.5 C 648.667969 643.5 654.710938 637.449219 654.710938 630 C 654.710938 622.546875 648.667969 616.5 641.210938 616.5 Z M 641.210938 616.5 " fill-opacity="1" fill-rule="nonzero"></path><path fill="#ffffff" d="M 654.527344 272.261719 C 654.480469 271.929688 654.472656 271.582031 654.402344 271.253906 C 654.304688 270.800781 654.132812 270.367188 653.988281 269.925781 C 653.863281 269.539062 653.769531 269.132812 653.609375 268.761719 C 653.4375 268.359375 653.195312 267.988281 652.984375 267.605469 C 652.777344 267.234375 652.601562 266.839844 652.367188 266.492188 C 652.132812 266.148438 651.832031 265.84375 651.5625 265.519531 C 651.273438 265.167969 651.007812 264.800781 650.683594 264.484375 C 650.433594 264.242188 650.136719 264.039062 649.871094 263.8125 C 649.457031 263.460938 649.046875 263.101562 648.589844 262.800781 C 648.542969 262.769531 648.507812 262.730469 648.460938 262.695312 L 412.25 112.375 C 407.828125 109.5625 402.179688 109.5625 397.757812 112.375 L 161.542969 262.695312 C 161.496094 262.730469 161.460938 262.769531 161.410156 262.800781 C 160.957031 263.101562 160.546875 263.460938 160.132812 263.8125 C 159.863281 264.039062 159.566406 264.238281 159.320312 264.484375 C 158.996094 264.800781 158.730469 265.167969 158.441406 265.519531 C 158.171875 265.84375 157.871094 266.148438 157.636719 266.492188 C 157.398438 266.84375 157.222656 267.234375 157.019531 267.605469 C 156.808594 267.988281 156.566406 268.359375 156.390625 268.761719 C 156.234375 269.132812 156.140625 269.539062 156.015625 269.925781 C 155.871094 270.371094 155.699219 270.800781 155.601562 271.253906 C 155.53125 271.582031 155.523438 271.929688 155.476562 272.261719 C 155.402344 272.816406 155.316406 273.367188 155.308594 273.929688 C 155.308594 273.984375 155.292969 274.03125 155.292969 274.085938 C 155.292969 274.382812 155.359375 274.65625 155.378906 274.945312 C 155.414062 275.496094 155.441406 276.042969 155.542969 276.589844 C 155.621094 277 155.757812 277.390625 155.871094 277.789062 C 155.996094 278.234375 156.105469 278.679688 156.28125 279.113281 C 156.46875 279.582031 156.714844 280.007812 156.949219 280.449219 C 157.109375 280.742188 157.214844 281.054688 157.398438 281.339844 C 157.429688 281.394531 157.476562 281.433594 157.511719 281.484375 C 157.78125 281.890625 158.101562 282.246094 158.410156 282.621094 C 158.671875 282.945312 158.910156 283.289062 159.199219 283.582031 C 159.433594 283.816406 159.703125 284.003906 159.953125 284.21875 C 160.367188 284.578125 160.765625 284.957031 161.214844 285.261719 C 161.410156 285.394531 161.636719 285.484375 161.839844 285.609375 C 162.378906 285.933594 162.914062 286.257812 163.488281 286.503906 C 163.734375 286.609375 164.007812 286.660156 164.261719 286.753906 C 164.828125 286.957031 165.394531 287.164062 165.984375 287.289062 C 166.242188 287.34375 166.511719 287.34375 166.773438 287.386719 C 167.398438 287.480469 168.019531 287.570312 168.648438 287.574219 C 168.699219 287.574219 168.742188 287.585938 168.789062 287.585938 L 641.210938 287.585938 C 642.269531 287.585938 643.285156 287.4375 644.273438 287.207031 C 644.542969 287.144531 644.796875 287.042969 645.0625 286.960938 C 645.785156 286.746094 646.484375 286.484375 647.148438 286.152344 C 647.453125 286.003906 647.742188 285.84375 648.039062 285.671875 C 648.675781 285.292969 649.269531 284.867188 649.832031 284.394531 C 650.0625 284.203125 650.304688 284.035156 650.523438 283.824219 C 651.269531 283.109375 651.9375 282.324219 652.503906 281.457031 C 652.535156 281.410156 652.578125 281.378906 652.601562 281.335938 C 652.785156 281.046875 652.890625 280.738281 653.050781 280.445312 C 653.285156 280.007812 653.535156 279.578125 653.722656 279.109375 C 653.898438 278.675781 654.003906 278.230469 654.132812 277.785156 C 654.246094 277.382812 654.378906 276.996094 654.457031 276.582031 C 654.5625 276.039062 654.589844 275.492188 654.621094 274.941406 C 654.640625 274.652344 654.710938 274.375 654.710938 274.082031 C 654.710938 274.027344 654.691406 273.976562 654.691406 273.921875 C 654.6875 273.367188 654.605469 272.820312 654.527344 272.261719 Z M 405 139.773438 L 594.851562 260.585938 L 215.148438 260.585938 Z M 405 139.773438 " fill-opacity="1" fill-rule="nonzero"></path><path fill="#ffffff" d="M 405 0 C 181.683594 0 0 181.675781 0 405 C 0 628.324219 181.683594 810 405 810 C 628.316406 810 810 628.324219 810 405 C 810 181.675781 628.316406 0 405 0 Z M 405 783 C 196.570312 783 27 613.433594 27 405 C 27 196.566406 196.570312 27 405 27 C 613.429688 27 783 196.566406 783 405 C 783 613.433594 613.429688 783 405 783 Z M 405 783 " fill-opacity="1" fill-rule="nonzero"></path></svg>