<?xml version="1.0"?>
<svg xmlns="http://www.w3.org/2000/svg" xmlns:xlink="http://www.w3.org/1999/xlink" width="1080" zoomAndPan="magnify" viewBox="0 0 810 809.999993" height="1080" preserveAspectRatio="xMidYMid meet" version="1.0"><defs><clipPath id="8685122e39"><path d="M 445.8125 91.046875 L 810 91.046875 L 810 718.796875 L 445.8125 718.796875 Z M 445.8125 91.046875 " clip-rule="nonzero"></path></clipPath></defs><g clip-path="url(#8685122e39)"><path fill="#fbc646" d="M 553.832031 91.0625 L 787.796875 91.0625 L 688.796875 275.335938 L 810.289062 275.335938 L 516.328125 718.777344 L 594.316406 392.175781 L 445.835938 392.175781 L 553.832031 91.0625 " fill-opacity="1" fill-rule="nonzero"></path></g><path fill="#f7931a" d="M 557.683594 473.921875 C 519.652344 626.019531 365.453125 718.972656 212.660156 680.945312 C 60.558594 642.914062 -32.394531 488.714844 5.636719 335.921875 C 43.664062 183.820312 197.863281 90.867188 350.65625 128.898438 C 502.757812 166.929688 595.710938 321.125 557.683594 473.921875 Z M 557.683594 473.921875 " fill-opacity="1" fill-rule="nonzero"></path><path fill="#ffffff" d="M 406.996094 364.082031 C 412.632812 326.0625 383.761719 305.636719 344.328125 292.265625 L 356.996094 240.871094 L 326.019531 233.136719 L 313.347656 283.132812 C 304.902344 281.015625 296.453125 278.910156 288.007812 277.496094 L 300.679688 227.496094 L 269.699219 219.761719 L 257.027344 271.15625 C 249.988281 269.75 243.648438 268.335938 237.316406 266.230469 L 194.371094 255.667969 L 185.921875 288.761719 L 208.453125 294.398438 C 221.125 297.21875 223.242188 305.664062 223.242188 312.714844 L 208.425781 371.132812 C 209.140625 371.132812 210.542969 371.84375 211.949219 371.84375 C 211.238281 371.84375 209.832031 371.132812 208.425781 371.132812 L 188.003906 452.8125 C 186.597656 456.332031 182.367188 462.59375 173.917969 460.546875 C 173.917969 461.257812 151.386719 454.910156 151.386719 454.910156 L 135.898438 490.832031 L 176.738281 500.613281 C 184.472656 502.730469 191.523438 504.835938 199.269531 506.25 L 186.597656 558.355469 L 217.578125 566.089844 L 230.246094 514.699219 L 254.984375 521.136719 L 242.3125 572.527344 L 273.292969 580.265625 L 285.960938 528.160156 C 339.472656 537.941406 378.90625 534.5 395.808594 485.925781 C 409.191406 447.203125 395.097656 424.570312 366.9375 409.875 C 388.066406 405.652344 402.859375 392.269531 407.074219 364.109375 Z M 335.878906 464.761719 C 326.097656 503.484375 261.242188 482.367188 240.117188 477.433594 L 257.011719 408.433594 C 278.136719 413.359375 345.730469 423.921875 335.878906 464.761719 Z M 345.660156 364.074219 C 337.214844 399.285156 282.289062 381.679688 264.683594 376.742188 L 280.175781 314.074219 C 297.78125 319 354.8125 326.746094 345.660156 364.074219 Z M 345.660156 364.074219 " fill-opacity="1" fill-rule="nonzero"></path></svg>