<?xml version="1.0"?>
<svg xmlns="http://www.w3.org/2000/svg" xmlns:xlink="http://www.w3.org/1999/xlink" width="1080" zoomAndPan="magnify" viewBox="0 0 810 809.999993" height="1080" preserveAspectRatio="xMidYMid meet" version="1.0"><defs><clipPath id="31a27141a0"><path d="M 107.832031 0 L 701.832031 0 L 701.832031 810 L 107.832031 810 Z M 107.832031 0 " clip-rule="nonzero"></path></clipPath></defs><g clip-path="url(#31a27141a0)"><path fill="#000000" d="M 134.980469 810 L 674.683594 810 C 675.566406 810 676.449219 809.957031 677.328125 809.871094 C 678.207031 809.785156 679.078125 809.652344 679.945312 809.480469 C 680.8125 809.308594 681.667969 809.09375 682.515625 808.835938 C 683.359375 808.582031 684.191406 808.28125 685.007812 807.945312 C 685.824219 807.605469 686.625 807.230469 687.402344 806.8125 C 688.183594 806.394531 688.9375 805.941406 689.675781 805.449219 C 690.410156 804.957031 691.117188 804.433594 691.800781 803.871094 C 692.484375 803.308594 693.136719 802.71875 693.761719 802.09375 C 694.386719 801.464844 694.980469 800.8125 695.542969 800.128906 C 696.101562 799.445312 696.628906 798.734375 697.121094 798 C 697.609375 797.265625 698.0625 796.507812 698.480469 795.726562 C 698.898438 794.949219 699.273438 794.148438 699.613281 793.332031 C 699.953125 792.515625 700.25 791.683594 700.503906 790.835938 C 700.761719 789.992188 700.976562 789.132812 701.148438 788.265625 C 701.320312 787.398438 701.449219 786.527344 701.539062 785.644531 C 701.625 784.765625 701.667969 783.882812 701.667969 783 L 701.667969 27 C 701.667969 26.117188 701.625 25.234375 701.539062 24.355469 C 701.449219 23.472656 701.320312 22.601562 701.148438 21.734375 C 700.976562 20.867188 700.761719 20.007812 700.503906 19.164062 C 700.25 18.316406 699.953125 17.484375 699.613281 16.667969 C 699.273438 15.851562 698.898438 15.050781 698.480469 14.273438 C 698.0625 13.492188 697.609375 12.734375 697.121094 12 C 696.628906 11.265625 696.101562 10.554688 695.542969 9.871094 C 694.980469 9.1875 694.386719 8.535156 693.761719 7.90625 C 693.136719 7.28125 692.484375 6.691406 691.800781 6.128906 C 691.117188 5.566406 690.410156 5.042969 689.675781 4.550781 C 688.9375 4.058594 688.183594 3.605469 687.402344 3.1875 C 686.625 2.769531 685.824219 2.394531 685.007812 2.054688 C 684.191406 1.71875 683.359375 1.417969 682.515625 1.164062 C 681.667969 0.90625 680.8125 0.691406 679.945312 0.519531 C 679.078125 0.347656 678.207031 0.214844 677.328125 0.128906 C 676.449219 0.0429688 675.566406 0 674.683594 0 L 256.414062 0 L 256.414062 0.121094 C 254.632812 0.101562 252.914062 0.421875 251.261719 1.085938 C 249.609375 1.75 248.144531 2.707031 246.875 3.957031 L 111.949219 138.957031 C 110.699219 140.226562 109.742188 141.691406 109.078125 143.34375 C 108.414062 145 108.09375 146.71875 108.117188 148.5 L 107.996094 148.5 L 107.996094 783 C 107.996094 783.882812 108.039062 784.765625 108.125 785.644531 C 108.210938 786.527344 108.339844 787.398438 108.515625 788.265625 C 108.6875 789.132812 108.902344 789.992188 109.15625 790.835938 C 109.414062 791.683594 109.710938 792.515625 110.050781 793.332031 C 110.386719 794.148438 110.765625 794.949219 111.179688 795.726562 C 111.597656 796.507812 112.050781 797.265625 112.542969 798 C 113.035156 798.734375 113.558594 799.445312 114.121094 800.128906 C 114.679688 800.8125 115.273438 801.464844 115.898438 802.09375 C 116.523438 802.71875 117.179688 803.308594 117.859375 803.871094 C 118.542969 804.433594 119.253906 804.957031 119.988281 805.449219 C 120.722656 805.941406 121.480469 806.394531 122.257812 806.8125 C 123.039062 807.230469 123.835938 807.605469 124.652344 807.945312 C 125.46875 808.28125 126.300781 808.582031 127.148438 808.835938 C 127.992188 809.09375 128.847656 809.308594 129.714844 809.480469 C 130.582031 809.652344 131.457031 809.785156 132.335938 809.871094 C 133.214844 809.957031 134.097656 810 134.980469 810 Z M 256.414062 162 C 257.300781 162 258.175781 161.914062 259.046875 161.742188 C 259.914062 161.566406 260.757812 161.3125 261.578125 160.972656 C 262.394531 160.632812 263.171875 160.21875 263.910156 159.726562 C 264.644531 159.230469 265.328125 158.671875 265.953125 158.046875 C 266.582031 157.417969 267.140625 156.738281 267.632812 156 C 268.125 155.261719 268.539062 154.484375 268.878906 153.667969 C 269.21875 152.847656 269.472656 152.003906 269.648438 151.132812 C 269.820312 150.265625 269.90625 149.386719 269.90625 148.5 L 269.90625 27 L 674.683594 27 L 674.683594 783 L 134.980469 783 L 134.980469 162 Z M 242.921875 46.089844 L 242.921875 135 L 154.058594 135 Z M 242.921875 46.089844 " fill-opacity="1" fill-rule="nonzero"></path></g><path fill="#000000" d="M 202.441406 229.5 L 445.308594 229.5 C 446.195312 229.5 447.070312 229.414062 447.941406 229.242188 C 448.808594 229.066406 449.652344 228.8125 450.472656 228.472656 C 451.289062 228.132812 452.066406 227.71875 452.804688 227.226562 C 453.542969 226.730469 454.222656 226.171875 454.847656 225.546875 C 455.476562 224.917969 456.035156 224.238281 456.527344 223.5 C 457.019531 222.761719 457.433594 221.984375 457.773438 221.167969 C 458.113281 220.347656 458.371094 219.503906 458.542969 218.632812 C 458.714844 217.765625 458.800781 216.886719 458.800781 216 C 458.800781 215.113281 458.714844 214.234375 458.542969 213.367188 C 458.371094 212.496094 458.113281 211.652344 457.773438 210.832031 C 457.433594 210.015625 457.019531 209.238281 456.527344 208.5 C 456.035156 207.761719 455.476562 207.082031 454.847656 206.453125 C 454.222656 205.828125 453.542969 205.269531 452.804688 204.773438 C 452.066406 204.28125 451.289062 203.867188 450.472656 203.527344 C 449.652344 203.1875 448.808594 202.933594 447.941406 202.757812 C 447.070312 202.585938 446.195312 202.5 445.308594 202.5 L 202.441406 202.5 C 201.558594 202.5 200.679688 202.585938 199.8125 202.757812 C 198.941406 202.933594 198.097656 203.1875 197.28125 203.527344 C 196.460938 203.867188 195.683594 204.28125 194.945312 204.773438 C 194.210938 205.269531 193.527344 205.828125 192.902344 206.453125 C 192.277344 207.082031 191.714844 207.761719 191.222656 208.5 C 190.730469 209.238281 190.316406 210.015625 189.976562 210.832031 C 189.636719 211.652344 189.382812 212.496094 189.210938 213.367188 C 189.035156 214.234375 188.949219 215.113281 188.949219 216 C 188.949219 216.886719 189.035156 217.765625 189.210938 218.632812 C 189.382812 219.503906 189.636719 220.347656 189.976562 221.167969 C 190.316406 221.984375 190.730469 222.761719 191.222656 223.5 C 191.714844 224.238281 192.277344 224.917969 192.902344 225.546875 C 193.527344 226.171875 194.210938 226.730469 194.945312 227.226562 C 195.683594 227.71875 196.460938 228.132812 197.28125 228.472656 C 198.097656 228.8125 198.941406 229.066406 199.8125 229.242188 C 200.679688 229.414062 201.558594 229.5 202.441406 229.5 Z M 202.441406 229.5 " fill-opacity="1" fill-rule="nonzero"></path><path fill="#000000" d="M 202.441406 310.5 L 607.21875 310.5 C 608.105469 310.5 608.984375 310.414062 609.851562 310.242188 C 610.71875 310.066406 611.5625 309.8125 612.382812 309.472656 C 613.203125 309.132812 613.980469 308.71875 614.714844 308.226562 C 615.453125 307.730469 616.132812 307.171875 616.761719 306.546875 C 617.386719 305.917969 617.945312 305.238281 618.4375 304.5 C 618.929688 303.761719 619.347656 302.984375 619.683594 302.167969 C 620.023438 301.347656 620.28125 300.503906 620.453125 299.632812 C 620.625 298.765625 620.710938 297.886719 620.710938 297 C 620.710938 296.113281 620.625 295.234375 620.453125 294.367188 C 620.28125 293.496094 620.023438 292.652344 619.683594 291.832031 C 619.347656 291.015625 618.929688 290.238281 618.4375 289.5 C 617.945312 288.761719 617.386719 288.082031 616.761719 287.453125 C 616.132812 286.828125 615.453125 286.269531 614.714844 285.773438 C 613.980469 285.28125 613.203125 284.867188 612.382812 284.527344 C 611.5625 284.1875 610.71875 283.933594 609.851562 283.757812 C 608.984375 283.585938 608.105469 283.5 607.21875 283.5 L 202.441406 283.5 C 201.558594 283.5 200.679688 283.585938 199.8125 283.757812 C 198.941406 283.933594 198.097656 284.1875 197.28125 284.527344 C 196.460938 284.867188 195.683594 285.28125 194.945312 285.773438 C 194.210938 286.269531 193.527344 286.828125 192.902344 287.453125 C 192.277344 288.082031 191.714844 288.761719 191.222656 289.5 C 190.730469 290.238281 190.316406 291.015625 189.976562 291.832031 C 189.636719 292.652344 189.382812 293.496094 189.210938 294.367188 C 189.035156 295.234375 188.949219 296.113281 188.949219 297 C 188.949219 297.886719 189.035156 298.765625 189.210938 299.632812 C 189.382812 300.503906 189.636719 301.347656 189.976562 302.167969 C 190.316406 302.984375 190.730469 303.761719 191.222656 304.5 C 191.714844 305.238281 192.277344 305.917969 192.902344 306.546875 C 193.527344 307.171875 194.210938 307.730469 194.945312 308.226562 C 195.683594 308.71875 196.460938 309.132812 197.28125 309.472656 C 198.097656 309.8125 198.941406 310.066406 199.8125 310.242188 C 200.679688 310.414062 201.558594 310.5 202.441406 310.5 Z M 202.441406 310.5 " fill-opacity="1" fill-rule="nonzero"></path><path fill="#000000" d="M 202.441406 391.5 L 607.21875 391.5 C 608.105469 391.5 608.984375 391.414062 609.851562 391.242188 C 610.71875 391.066406 611.5625 390.8125 612.382812 390.472656 C 613.203125 390.132812 613.980469 389.71875 614.714844 389.226562 C 615.453125 388.730469 616.132812 388.171875 616.761719 387.546875 C 617.386719 386.917969 617.945312 386.238281 618.4375 385.5 C 618.929688 384.761719 619.347656 383.984375 619.683594 383.167969 C 620.023438 382.347656 620.28125 381.503906 620.453125 380.632812 C 620.625 379.765625 620.710938 378.886719 620.710938 378 C 620.710938 377.113281 620.625 376.234375 620.453125 375.367188 C 620.28125 374.496094 620.023438 373.652344 619.683594 372.832031 C 619.347656 372.015625 618.929688 371.238281 618.4375 370.5 C 617.945312 369.761719 617.386719 369.082031 616.761719 368.453125 C 616.132812 367.828125 615.453125 367.269531 614.714844 366.773438 C 613.980469 366.28125 613.203125 365.867188 612.382812 365.527344 C 611.5625 365.1875 610.71875 364.933594 609.851562 364.757812 C 608.984375 364.585938 608.105469 364.5 607.21875 364.5 L 202.441406 364.5 C 201.558594 364.5 200.679688 364.585938 199.8125 364.757812 C 198.941406 364.933594 198.097656 365.1875 197.28125 365.527344 C 196.460938 365.867188 195.683594 366.28125 194.945312 366.773438 C 194.210938 367.269531 193.527344 367.828125 192.902344 368.453125 C 192.277344 369.082031 191.714844 369.761719 191.222656 370.5 C 190.730469 371.238281 190.316406 372.015625 189.976562 372.832031 C 189.636719 373.652344 189.382812 374.496094 189.210938 375.367188 C 189.035156 376.234375 188.949219 377.113281 188.949219 378 C 188.949219 378.886719 189.035156 379.765625 189.210938 380.632812 C 189.382812 381.503906 189.636719 382.347656 189.976562 383.167969 C 190.316406 383.984375 190.730469 384.761719 191.222656 385.5 C 191.714844 386.238281 192.277344 386.917969 192.902344 387.546875 C 193.527344 388.171875 194.210938 388.730469 194.945312 389.226562 C 195.683594 389.71875 196.460938 390.132812 197.28125 390.472656 C 198.097656 390.8125 198.941406 391.066406 199.8125 391.242188 C 200.679688 391.414062 201.558594 391.5 202.441406 391.5 Z M 202.441406 391.5 " fill-opacity="1" fill-rule="nonzero"></path><path fill="#000000" d="M 202.441406 472.5 L 607.21875 472.5 C 608.105469 472.5 608.984375 472.414062 609.851562 472.242188 C 610.71875 472.066406 611.5625 471.8125 612.382812 471.472656 C 613.203125 471.132812 613.980469 470.71875 614.714844 470.226562 C 615.453125 469.730469 616.132812 469.171875 616.761719 468.546875 C 617.386719 467.917969 617.945312 467.238281 618.4375 466.5 C 618.929688 465.761719 619.347656 464.984375 619.683594 464.167969 C 620.023438 463.347656 620.28125 462.503906 620.453125 461.632812 C 620.625 460.765625 620.710938 459.886719 620.710938 459 C 620.710938 458.113281 620.625 457.234375 620.453125 456.367188 C 620.28125 455.496094 620.023438 454.652344 619.683594 453.832031 C 619.347656 453.015625 618.929688 452.238281 618.4375 451.5 C 617.945312 450.761719 617.386719 450.082031 616.761719 449.453125 C 616.132812 448.828125 615.453125 448.269531 614.714844 447.773438 C 613.980469 447.28125 613.203125 446.867188 612.382812 446.527344 C 611.5625 446.1875 610.71875 445.933594 609.851562 445.757812 C 608.984375 445.585938 608.105469 445.5 607.21875 445.5 L 202.441406 445.5 C 201.558594 445.5 200.679688 445.585938 199.8125 445.757812 C 198.941406 445.933594 198.097656 446.1875 197.28125 446.527344 C 196.460938 446.867188 195.683594 447.28125 194.945312 447.773438 C 194.210938 448.269531 193.527344 448.828125 192.902344 449.453125 C 192.277344 450.082031 191.714844 450.761719 191.222656 451.5 C 190.730469 452.238281 190.316406 453.015625 189.976562 453.832031 C 189.636719 454.652344 189.382812 455.496094 189.210938 456.367188 C 189.035156 457.234375 188.949219 458.113281 188.949219 459 C 188.949219 459.886719 189.035156 460.765625 189.210938 461.632812 C 189.382812 462.503906 189.636719 463.347656 189.976562 464.167969 C 190.316406 464.984375 190.730469 465.761719 191.222656 466.5 C 191.714844 467.238281 192.277344 467.917969 192.902344 468.546875 C 193.527344 469.171875 194.210938 469.730469 194.945312 470.226562 C 195.683594 470.71875 196.460938 471.132812 197.28125 471.472656 C 198.097656 471.8125 198.941406 472.066406 199.8125 472.242188 C 200.679688 472.414062 201.558594 472.5 202.441406 472.5 Z M 202.441406 472.5 " fill-opacity="1" fill-rule="nonzero"></path><path fill="#000000" d="M 202.441406 553.5 L 607.21875 553.5 C 608.105469 553.5 608.984375 553.414062 609.851562 553.242188 C 610.71875 553.066406 611.5625 552.8125 612.382812 552.472656 C 613.203125 552.132812 613.980469 551.71875 614.714844 551.226562 C 615.453125 550.730469 616.132812 550.171875 616.761719 549.546875 C 617.386719 548.917969 617.945312 548.238281 618.4375 547.5 C 618.929688 546.761719 619.347656 545.984375 619.683594 545.167969 C 620.023438 544.347656 620.28125 543.503906 620.453125 542.632812 C 620.625 541.765625 620.710938 540.886719 620.710938 540 C 620.710938 539.113281 620.625 538.234375 620.453125 537.367188 C 620.28125 536.496094 620.023438 535.652344 619.683594 534.832031 C 619.347656 534.015625 618.929688 533.238281 618.4375 532.5 C 617.945312 531.761719 617.386719 531.082031 616.761719 530.453125 C 616.132812 529.828125 615.453125 529.265625 614.714844 528.773438 C 613.980469 528.28125 613.203125 527.867188 612.382812 527.527344 C 611.5625 527.1875 610.71875 526.933594 609.851562 526.757812 C 608.984375 526.585938 608.105469 526.5 607.21875 526.5 L 202.441406 526.5 C 201.558594 526.5 200.679688 526.585938 199.8125 526.757812 C 198.941406 526.933594 198.097656 527.1875 197.28125 527.527344 C 196.460938 527.867188 195.683594 528.28125 194.945312 528.773438 C 194.210938 529.265625 193.527344 529.828125 192.902344 530.453125 C 192.277344 531.082031 191.714844 531.761719 191.222656 532.5 C 190.730469 533.238281 190.316406 534.015625 189.976562 534.832031 C 189.636719 535.652344 189.382812 536.496094 189.210938 537.367188 C 189.035156 538.234375 188.949219 539.113281 188.949219 540 C 188.949219 540.886719 189.035156 541.765625 189.210938 542.632812 C 189.382812 543.503906 189.636719 544.347656 189.976562 545.167969 C 190.316406 545.984375 190.730469 546.761719 191.222656 547.5 C 191.714844 548.238281 192.277344 548.917969 192.902344 549.546875 C 193.527344 550.171875 194.210938 550.730469 194.945312 551.226562 C 195.683594 551.71875 196.460938 552.132812 197.28125 552.472656 C 198.097656 552.8125 198.941406 553.066406 199.8125 553.242188 C 200.679688 553.414062 201.558594 553.5 202.441406 553.5 Z M 202.441406 553.5 " fill-opacity="1" fill-rule="nonzero"></path><path fill="#000000" d="M 202.441406 634.5 L 607.21875 634.5 C 608.105469 634.5 608.984375 634.414062 609.851562 634.242188 C 610.71875 634.066406 611.5625 633.8125 612.382812 633.472656 C 613.203125 633.132812 613.980469 632.71875 614.714844 632.226562 C 615.453125 631.730469 616.132812 631.171875 616.761719 630.546875 C 617.386719 629.917969 617.945312 629.238281 618.4375 628.5 C 618.929688 627.761719 619.347656 626.984375 619.683594 626.167969 C 620.023438 625.347656 620.28125 624.503906 620.453125 623.632812 C 620.625 622.765625 620.710938 621.886719 620.710938 621 C 620.710938 620.113281 620.625 619.234375 620.453125 618.367188 C 620.28125 617.496094 620.023438 616.652344 619.683594 615.832031 C 619.347656 615.015625 618.929688 614.238281 618.4375 613.5 C 617.945312 612.761719 617.386719 612.082031 616.761719 611.453125 C 616.132812 610.828125 615.453125 610.265625 614.714844 609.773438 C 613.980469 609.28125 613.203125 608.867188 612.382812 608.527344 C 611.5625 608.1875 610.71875 607.933594 609.851562 607.757812 C 608.984375 607.585938 608.105469 607.5 607.21875 607.5 L 202.441406 607.5 C 201.558594 607.5 200.679688 607.585938 199.8125 607.757812 C 198.941406 607.933594 198.097656 608.1875 197.28125 608.527344 C 196.460938 608.867188 195.683594 609.28125 194.945312 609.773438 C 194.210938 610.265625 193.527344 610.828125 192.902344 611.453125 C 192.277344 612.082031 191.714844 612.761719 191.222656 613.5 C 190.730469 614.238281 190.316406 615.015625 189.976562 615.832031 C 189.636719 616.652344 189.382812 617.496094 189.210938 618.367188 C 189.035156 619.234375 188.949219 620.113281 188.949219 621 C 188.949219 621.886719 189.035156 622.765625 189.210938 623.632812 C 189.382812 624.503906 189.636719 625.347656 189.976562 626.167969 C 190.316406 626.984375 190.730469 627.761719 191.222656 628.5 C 191.714844 629.238281 192.277344 629.917969 192.902344 630.546875 C 193.527344 631.171875 194.210938 631.730469 194.945312 632.226562 C 195.683594 632.71875 196.460938 633.132812 197.28125 633.472656 C 198.097656 633.8125 198.941406 634.066406 199.8125 634.242188 C 200.679688 634.414062 201.558594 634.5 202.441406 634.5 Z M 202.441406 634.5 " fill-opacity="1" fill-rule="nonzero"></path><path fill="#000000" d="M 580.234375 688.5 L 539.757812 688.5 C 538.871094 688.5 537.992188 688.585938 537.125 688.757812 C 536.253906 688.933594 535.410156 689.1875 534.59375 689.527344 C 533.773438 689.867188 532.996094 690.28125 532.261719 690.773438 C 531.523438 691.265625 530.84375 691.828125 530.214844 692.453125 C 529.589844 693.082031 529.03125 693.761719 528.539062 694.5 C 528.046875 695.238281 527.628906 696.015625 527.292969 696.832031 C 526.953125 697.652344 526.695312 698.496094 526.523438 699.367188 C 526.351562 700.234375 526.265625 701.113281 526.265625 702 C 526.265625 702.886719 526.351562 703.765625 526.523438 704.632812 C 526.695312 705.503906 526.953125 706.347656 527.292969 707.167969 C 527.628906 707.984375 528.046875 708.761719 528.539062 709.5 C 529.03125 710.238281 529.589844 710.917969 530.214844 711.546875 C 530.84375 712.171875 531.523438 712.730469 532.261719 713.226562 C 532.996094 713.71875 533.773438 714.132812 534.59375 714.472656 C 535.410156 714.8125 536.253906 715.066406 537.125 715.242188 C 537.992188 715.414062 538.871094 715.5 539.757812 715.5 L 580.234375 715.5 C 581.121094 715.5 581.996094 715.414062 582.867188 715.242188 C 583.734375 715.066406 584.578125 714.8125 585.398438 714.472656 C 586.214844 714.132812 586.992188 713.71875 587.730469 713.226562 C 588.46875 712.730469 589.148438 712.171875 589.773438 711.546875 C 590.402344 710.917969 590.960938 710.238281 591.453125 709.5 C 591.945312 708.761719 592.359375 707.984375 592.699219 707.167969 C 593.039062 706.347656 593.292969 705.503906 593.46875 704.632812 C 593.640625 703.765625 593.726562 702.886719 593.726562 702 C 593.726562 701.113281 593.640625 700.234375 593.46875 699.367188 C 593.292969 698.496094 593.039062 697.652344 592.699219 696.832031 C 592.359375 696.015625 591.945312 695.238281 591.453125 694.5 C 590.960938 693.761719 590.402344 693.082031 589.773438 692.453125 C 589.148438 691.828125 588.46875 691.265625 587.730469 690.773438 C 586.992188 690.28125 586.214844 689.867188 585.398438 689.527344 C 584.578125 689.1875 583.734375 688.933594 582.867188 688.757812 C 581.996094 688.585938 581.121094 688.5 580.234375 688.5 Z M 580.234375 688.5 " fill-opacity="1" fill-rule="nonzero"></path><path fill="#000000" d="M 485.785156 688.5 L 283.398438 688.5 C 282.511719 688.5 281.636719 688.585938 280.765625 688.757812 C 279.898438 688.933594 279.054688 689.1875 278.234375 689.527344 C 277.417969 689.867188 276.640625 690.28125 275.902344 690.773438 C 275.164062 691.265625 274.484375 691.828125 273.859375 692.453125 C 273.230469 693.082031 272.671875 693.761719 272.179688 694.5 C 271.6875 695.238281 271.273438 696.015625 270.933594 696.832031 C 270.59375 697.652344 270.335938 698.496094 270.164062 699.367188 C 269.992188 700.234375 269.90625 701.113281 269.90625 702 C 269.90625 702.886719 269.992188 703.765625 270.164062 704.632812 C 270.335938 705.503906 270.59375 706.347656 270.933594 707.167969 C 271.273438 707.984375 271.6875 708.761719 272.179688 709.5 C 272.671875 710.238281 273.230469 710.917969 273.859375 711.546875 C 274.484375 712.171875 275.164062 712.730469 275.902344 713.226562 C 276.640625 713.71875 277.417969 714.132812 278.234375 714.472656 C 279.054688 714.8125 279.898438 715.066406 280.765625 715.242188 C 281.636719 715.414062 282.511719 715.5 283.398438 715.5 L 485.785156 715.5 C 486.671875 715.5 487.550781 715.414062 488.417969 715.242188 C 489.289062 715.066406 490.132812 714.8125 490.949219 714.472656 C 491.769531 714.132812 492.546875 713.71875 493.28125 713.226562 C 494.019531 712.730469 494.699219 712.171875 495.328125 711.546875 C 495.953125 710.917969 496.511719 710.238281 497.003906 709.5 C 497.496094 708.761719 497.914062 707.984375 498.25 707.167969 C 498.589844 706.347656 498.847656 705.503906 499.019531 704.632812 C 499.191406 703.765625 499.277344 702.886719 499.277344 702 C 499.277344 701.113281 499.191406 700.234375 499.019531 699.367188 C 498.847656 698.496094 498.589844 697.652344 498.25 696.832031 C 497.914062 696.015625 497.496094 695.238281 497.003906 694.5 C 496.511719 693.761719 495.953125 693.082031 495.328125 692.453125 C 494.699219 691.828125 494.019531 691.265625 493.28125 690.773438 C 492.546875 690.28125 491.769531 689.867188 490.949219 689.527344 C 490.132812 689.1875 489.289062 688.933594 488.417969 688.757812 C 487.550781 688.585938 486.671875 688.5 485.785156 688.5 Z M 485.785156 688.5 " fill-opacity="1" fill-rule="nonzero"></path><path fill="#000000" d="M 229.429688 688.5 L 202.441406 688.5 C 201.558594 688.5 200.679688 688.585938 199.8125 688.757812 C 198.941406 688.933594 198.097656 689.1875 197.28125 689.527344 C 196.460938 689.867188 195.683594 690.28125 194.945312 690.773438 C 194.210938 691.265625 193.527344 691.828125 192.902344 692.453125 C 192.277344 693.082031 191.714844 693.761719 191.222656 694.5 C 190.730469 695.238281 190.316406 696.015625 189.976562 696.832031 C 189.636719 697.652344 189.382812 698.496094 189.210938 699.367188 C 189.035156 700.234375 188.949219 701.113281 188.949219 702 C 188.949219 702.886719 189.035156 703.765625 189.210938 704.632812 C 189.382812 705.503906 189.636719 706.347656 189.976562 707.167969 C 190.316406 707.984375 190.730469 708.761719 191.222656 709.5 C 191.714844 710.238281 192.277344 710.917969 192.902344 711.546875 C 193.527344 712.171875 194.210938 712.730469 194.945312 713.226562 C 195.683594 713.71875 196.460938 714.132812 197.28125 714.472656 C 198.097656 714.8125 198.941406 715.066406 199.8125 715.242188 C 200.679688 715.414062 201.558594 715.5 202.441406 715.5 L 229.429688 715.5 C 230.3125 715.5 231.191406 715.414062 232.058594 715.242188 C 232.929688 715.066406 233.773438 714.8125 234.589844 714.472656 C 235.410156 714.132812 236.1875 713.71875 236.925781 713.226562 C 237.660156 712.730469 238.34375 712.171875 238.96875 711.546875 C 239.59375 710.917969 240.15625 710.238281 240.648438 709.5 C 241.140625 708.761719 241.554688 707.984375 241.894531 707.167969 C 242.234375 706.347656 242.488281 705.503906 242.660156 704.632812 C 242.835938 703.765625 242.921875 702.886719 242.921875 702 C 242.921875 701.113281 242.835938 700.234375 242.660156 699.367188 C 242.488281 698.496094 242.234375 697.652344 241.894531 696.832031 C 241.554688 696.015625 241.140625 695.238281 240.648438 694.5 C 240.15625 693.761719 239.59375 693.082031 238.96875 692.453125 C 238.34375 691.828125 237.660156 691.265625 236.925781 690.773438 C 236.1875 690.28125 235.410156 689.867188 234.589844 689.527344 C 233.773438 689.1875 232.929688 688.933594 232.058594 688.757812 C 231.191406 688.585938 230.3125 688.5 229.429688 688.5 Z M 229.429688 688.5 " fill-opacity="1" fill-rule="nonzero"></path></svg>